<?xml version="1.0" encoding="UTF-8" standalone="no"?>
<!-- Created with Inkscape (http://www.inkscape.org/) -->

<svg
   xmlns:dc="http://purl.org/dc/elements/1.1/"
   xmlns:cc="http://creativecommons.org/ns#"
   xmlns:rdf="http://www.w3.org/1999/02/22-rdf-syntax-ns#"
   xmlns:svg="http://www.w3.org/2000/svg"
   xmlns="http://www.w3.org/2000/svg"
   xmlns:sodipodi="http://sodipodi.sourceforge.net/DTD/sodipodi-0.dtd"
   xmlns:inkscape="http://www.inkscape.org/namespaces/inkscape"
   width="72.302383mm"
   height="71.580368mm"
   viewBox="0 0 72.302383 71.580368"
   version="1.1"
   id="svg8"
   inkscape:version="0.92.4 (5da689c313, 2019-01-14)"
   sodipodi:docname="chirihop.svg"
   inkscape:export-filename="C:\Users\marco\Desktop\chirihop.png"
   inkscape:export-xdpi="709.69171"
   inkscape:export-ydpi="709.69171">
  <defs
     id="defs2" />
  <sodipodi:namedview
     id="base"
     pagecolor="#ffffff"
     bordercolor="#666666"
     borderopacity="1.0"
     inkscape:pageopacity="0.0"
     inkscape:pageshadow="2"
     inkscape:zoom="0.49497475"
     inkscape:cx="-325.81056"
     inkscape:cy="-81.449563"
     inkscape:document-units="mm"
     inkscape:current-layer="g3759"
     showgrid="false"
     inkscape:window-width="1920"
     inkscape:window-height="1057"
     inkscape:window-x="-8"
     inkscape:window-y="-8"
     inkscape:window-maximized="1" />
  <metadata
     id="metadata5">
    <rdf:RDF>
      <cc:Work
         rdf:about="">
        <dc:format>image/svg+xml</dc:format>
        <dc:type
           rdf:resource="http://purl.org/dc/dcmitype/StillImage" />
        <dc:title></dc:title>
      </cc:Work>
    </rdf:RDF>
  </metadata>
  <g
     inkscape:label="Capa 1"
     inkscape:groupmode="layer"
     id="layer1"
     transform="translate(-12.756409,-16.24025)">
    <g
       id="g3759"
       transform="translate(70.870545,11.339288)"
       style="fill:#000000">
      <path
         style="fill:#f6d5ff;fill-opacity:1;stroke-width:0.26458332"
         d="m -20.146429,76.40949 c -1.243629,-0.30304 -2.029193,-0.74232 -2.487509,-1.39098 -1.150364,-1.62812 -0.918755,-3.59121 0.713785,-6.05 0.825682,-1.24356 0.981228,-1.71786 1.06821,-3.257198 l 0.101804,-1.80169 -1.021062,-0.16542 c -5.452951,-0.88341 -7.952663,-1.77439 -11.326449,-4.03712 l -2.130028,-1.42856 -0.816015,0.93938 c -0.448807,0.51666 -0.966309,1.4484 -1.150006,2.07054 -1.01087,3.42359 -3.296092,4.3228 -5.701504,2.24348 -0.859644,-0.7431 -1.016142,-1.0532 -1.130114,-2.23933 -0.123129,-1.28143 -0.07446,-1.43082 0.702749,-2.15684 0.459274,-0.42902 1.456478,-0.98529 2.216007,-1.23615 1.499312,-0.49519 3.100758,-1.56938 3.100758,-2.07986 0,-0.17565 -0.292471,-0.59412 -0.649933,-0.92994 -0.9939,-0.93372 -2.988535,-4.02744 -3.97955,-6.17236 -1.483741,-3.21137 -2.038001,-5.69586 -2.181712,-9.77961 l -0.128021,-3.63802 h -2.034842 c -1.824858,0 -2.169493,0.0854 -3.33969,0.82751 -4.41603,2.80056 -7.794585,1.60087 -7.794585,-2.76777 0,-2.83659 1.324472,-4.40679 3.718808,-4.40875 0.927044,-8e-4 1.808064,0.30685 3.816597,1.33258 2.489988,1.27161 2.696649,1.33001 4.447476,1.25677 l 1.836147,-0.0768 0.861619,-2.38125 c 0.954084,-2.6368 1.984814,-4.51141 3.699592,-6.72854 1.202264,-1.55447 4.496339,-4.79436 5.830641,-5.73473 0.750644,-0.52902 0.77131,-0.59261 0.411281,-1.26533 -0.208494,-0.38958 -1.178459,-1.23495 -2.155475,-1.87861 -2.230996,-1.46979 -2.948948,-2.4518 -3.096903,-4.2359304 -0.104037,-1.25456 -0.03847,-1.45646 0.773189,-2.38089 2.262023,-2.5763 5.909633,-2.61571 7.294702,-0.0788 0.381085,0.698 0.475867,1.48629 0.475867,3.9577304 0,1.69737 0.07954,3.16597 0.176757,3.26356 0.09722,0.0976 1.093028,-0.13031 2.212914,-0.50644 4.017301,-1.34928 6.884363,-0.57866 8.329613,2.23885 1.170551,2.28199 0.885737,4.49503 -0.829252,6.44336 -0.801844,0.91094 -1.503043,1.34782 -3.279505,2.04327 -4.025397,1.57585 -6.914536,4.26682 -8.589444,8.00028 -0.901943,2.01048 -1.09025,3.01943 -1.09025,5.84158 0,4.26455 1.197748,7.20983 4.098674,10.0787 3.910621,3.86741 8.579257,5.16038 13.806126,3.82357 2.528567,-0.6467 4.440523,-1.75072 6.469057,-3.73542 1.749668,-1.71186 2.729111,-3.26484 3.628409,-5.7531 0.949534,-2.62725 2.395569,-3.95377 4.92888001,-4.5215 3.47484699,-0.77872 6.77379199,1.80323 6.78133499,5.30749 7.94e-4,0.37693 -0.366575,1.74615 -0.816417,3.04271 -0.449839,1.29656 -0.836792,2.58911 -0.859896,2.87234 -0.05427,0.66533 1.584757,1.61305 3.164015,1.82951 1.690547,0.23172 2.731301,0.86037 3.172494,1.91629 0.51748,1.2385 0.0613,2.76545 -1.141738,3.82173 -0.720838,0.63291 -1.130368,0.78105 -2.159174,0.78105 -1.101604,0 -1.393902,-0.12429 -2.208842,-0.93923 -0.516578,-0.51658 -1.137891,-1.45942 -1.380702,-2.09521 -0.242809,-0.63578 -0.718892,-1.33775 -1.057964,-1.55991 -0.597792,-0.39169 -0.652052,-0.35823 -1.788549,1.10301 -1.45616599,1.87225 -4.567753,4.666 -6.789785,6.09623 -2.676059,1.72246 -7.787949,3.47311 -10.174946,3.48458 -1.390186,0.007 -1.586782,0.27881 -1.457073,2.01691 0.06366,0.852998 0.287288,1.862328 0.496959,2.242958 1.728882,3.13854 1.880946,3.52797 1.892805,4.8475 0.01402,1.56172 -0.374724,2.3464 -1.514498,3.05693 -0.817573,0.50968 -3.023306,0.86058 -3.965837,0.63091 z m -4.713406,-17.343298 c 0.916876,-0.86136 0.82904,-2.185 -0.209368,-3.15502 -2.320105,-2.1673 -5.334047,0.59533 -3.173156,2.90857 0.961658,1.02946 2.434797,1.13679 3.382524,0.24645 z m 23.510847,-12.24498 c 1.04010901,-1.04011 0.68967101,-2.52557 -0.595813,-2.52557 -1.531972,0 -2.280526,1.92023 -1.077132,2.76312 0.77737,0.5445 0.909688,0.52571 1.672945,-0.23755 z m -32.601356,-19.5551 c 2.444104,-1.02121 2.294789,-4.50755 -0.193053,-4.50755 -2.189015,0 -3.486809,2.89017 -1.90771,4.24846 0.840836,0.72325 0.955903,0.73745 2.100763,0.25909 z m 11.624952,22.44249 c -2.218581,-0.5975 -4.039846,-1.66237 -5.574014,-3.25906 -2.918322,-3.03726 -4.039845,-7.07311 -3.117556,-11.21863 1.244015,-5.5916 6.081025,-9.4561 11.835757,-9.4561 1.953583,0 2.827388,-0.54318 5.742275,-3.56952 2.352325,-2.44226 2.684634,-2.91061 3.219751,-4.53785 0.828474,-2.5193 1.421871,-3.61777 2.541998,-4.70563 0.806495,-0.78325 0.909809,-1.0022 0.631282,-1.33781 -0.183168,-0.2207 -0.539194,-0.40127 -0.791167,-0.40127 -0.251973,0 -0.773176,-0.29198 -1.15823,-0.64883 -1.528751,-1.4168004 -0.458946,-3.5845104 1.769026,-3.5845104 1.493774,0 1.876999,0.457 1.922518,2.29262 0.01947,0.7858904 0.09262,1.4860804 0.162523,1.5559904 0.0699,0.0699 0.591857,-0.0673 1.159904,-0.30497 1.24275,-0.51988 4.65330901,-0.5678004 6.117812,-0.086 0.550227,0.18103 1.44858,0.62514 1.996337,0.98691 0.962563,0.63572 1.013519,0.64182 1.521355,0.18224 0.288988,-0.26153 0.525433,-0.76063 0.525433,-1.1091 0,-0.8276504 0.65971,-2.0867604 1.202478,-2.2950404 1.4037,-0.53865 3.040121,0.41001 3.430011,1.9884404 0.222544,0.90095 -0.62679,1.73241 -2.165419,2.11984 -0.611359,0.15394 -1.299355,0.4874 -1.528876,0.74102 -0.382357,0.4225 -0.362323,0.5595 0.239186,1.63572 0.361074,0.64603 0.822367,1.82522 1.025096,2.62042 0.421715,1.65418 0.933207,1.90818 2.420967,1.20219 1.164206,-0.55246 2.061464,-0.52765 2.808973,0.0776 1.173966,0.95062 0.421984,3.73763 -1.067935,3.95799 -0.799161,0.11821 -2.090328,-0.44323 -2.415151,-1.05016 -0.14604,-0.27287 -0.550326,-0.49287 -0.905733,-0.49287 -0.531217,0 -0.694113,0.19371 -0.94434,1.12299 -0.483912,1.7971 -1.161955,2.90365 -2.608114,4.25636 -1.509152,1.41164 -1.510554,1.74724 -0.01045,2.50041 1.832173,0.9199 2.053383,2.78909 0.446056,3.76912 -1.92449,1.17341 -3.363057,0.22342 -3.370388,-2.22571 -0.0058,-1.9227 -0.133556,-2.03116 -1.79100999,-1.52 -1.183745,0.36507 -1.840219,0.86807 -4.28033301,3.27963 -3.123348,3.08681 -3.3088,3.42214 -3.555413,6.42874 -0.455991,5.55925 -4.189735,10.00108 -9.419192,11.20547 -1.646391,0.37919 -4.361508,0.32469 -6.015421,-0.12072 z m -2.980412,-6.0588 c 0,-0.5173 -0.51286,-0.79922 -0.846666,-0.46541 -0.149265,0.14927 -0.191397,0.40083 -0.09362,0.55903 0.259347,0.41964 0.940289,0.35184 0.940289,-0.0936 z m 9.215758,-3.01842 c 0.06784,-0.47702 -0.02178,-0.59529 -0.396875,-0.52376 -0.269164,0.0513 -0.523457,0.36624 -0.572141,0.70853 -0.06784,0.47703 0.02178,0.59529 0.396875,0.52376 0.269164,-0.0513 0.523457,-0.36624 0.572141,-0.70853 z m 5.865491,-5.59616 c 0,-0.29104 -0.112035,-0.52916 -0.248968,-0.52916 -0.355163,0 -0.605425,0.48157 -0.41249,0.79375 0.276521,0.44742 0.661458,0.29344 0.661458,-0.26459 z m -12.292951,-2.39771 c 0.351515,-0.56876 -0.130823,-1.57104 -0.756047,-1.57104 -0.80329,0 -1.238501,0.47666 -1.238501,1.35644 0,1.03247 1.396235,1.1827 1.994548,0.2146 z m 19.701284,-10.00531 c 0,-0.1277 -0.167994,-0.3716 -0.373319,-0.54201 -0.414623,-0.34411 -0.8387,0.0469 -0.552723,0.50962 0.201497,0.32602 0.926042,0.35137 0.926042,0.0324 z m 7.254402,-0.19299 c 0.606311,-0.23267 0.535445,-1.16232 -0.0886,-1.16232 -0.539352,0 -0.81681,0.44674 -0.616224,0.99219 0.14033,0.3816 0.148569,0.38358 0.704827,0.17013 z m -4.08993999,-8.16108 c 0.455083,-0.54834 0.08795,-1.43839 -0.671992,-1.62913 -1.12346301,-0.28197 -1.90600001,0.90645 -1.11663701,1.69581 0.435192,0.43519 1.40202701,0.39915 1.78862901,-0.0667 z"
         id="path3761"
         inkscape:connector-curvature="0"
         sodipodi:nodetypes="sscccccccscsccsccccscsccccssscssssscssscsssssscccccscscccsccccccscccccscccsccccssssscscsccccccsssscscscccscccccccscccccccccccccsscscsscsccsscsccccsscc"
         inkscape:export-xdpi="709.6308"
         inkscape:export-ydpi="709.6308" />
    </g>
  </g>
</svg>
